<?xml version="1.0" encoding="UTF-8"?>
<svg id="Layer_2" data-name="Layer 2" xmlns="http://www.w3.org/2000/svg" viewBox="0 0 1848.34 792.34">
  <polygon points="414 119.96 824.03 792.34 975.58 792.34 487.72 0 414 119.96"/>
  <polygon points="0 792.27 151.61 792.27 460.97 285.23 386.9 163.83 0 792.27"/>
  <polygon points="1149.09 0 997.53 0 774.68 365.45 849.38 486.76 910.74 387.11 1157.85 792.34 1310.07 792.34 985.65 265.44 1149.09 0"/>
  <polygon points="1216.38 537.54 1339.51 737.53 1339.51 343.87 1216.38 207.95 1216.38 537.54"/>
  <polygon points="1725.19 0 1725.19 448.42 1848.34 582.02 1848.34 0 1725.19 0"/>
  <polygon points="1216.38 0 1216.38 125.46 1806.52 792.27 1848.34 792.27 1848.34 665.65 1259.35 0 1216.38 0"/>
  <polygon points="485.77 531.51 200.12 531.51 200.12 652.72 559.68 652.72 485.77 531.51"/>
</svg>